<svg width="230" height="42" viewBox="0 0 230 42" fill="none" xmlns="http://www.w3.org/2000/svg">
<path d="M0 38.0262V3.97375C0 1.78178 1.77891 0 3.96736 0C5.69508 0 7.22443 1.12162 7.74914 2.76881L12.062 16.3565C12.6316 18.1511 14.5448 19.1381 16.3302 18.5677C17.3796 18.2344 18.205 17.4076 18.5378 16.3565L22.8507 2.76881C23.3754 1.12162 24.9048 0 26.6325 0H37.965C40.1535 0 41.9324 1.78178 41.9324 3.97375C41.9324 5.70426 40.8126 7.23608 39.168 7.76164L25.6022 12.0815C23.8105 12.6519 22.8251 14.5683 23.3946 16.3565C23.9641 18.1511 25.8774 19.1381 27.6627 18.5677C28.0978 18.4267 28.4946 18.2088 28.8401 17.9075L35.3863 12.3058C37.05 10.8765 39.552 11.0752 40.979 12.7416C41.638 13.5108 41.9772 14.5106 41.926 15.5233L41.3629 26.8485C41.2669 28.7264 39.6736 30.1749 37.7987 30.0787C37.1204 30.0467 36.4677 29.8096 35.9302 29.3994L28.6801 23.9515C27.1764 22.8234 25.0455 23.1311 23.9193 24.6309C23.689 24.9385 23.5162 25.2782 23.401 25.6435L19.0881 39.2312C18.5634 40.8784 17.034 42 15.3063 42H3.96736C1.77891 42 0 40.2182 0 38.0262Z" fill="black"/>
<path d="M59.8621 19.7858H67.4039V22.0859H59.8621V29.5914H57.2031V12.2803H69.1926V14.5804H59.8621V19.7858Z" fill="black"/>
<path d="M75.3475 29.9546C74.0583 29.9546 72.9544 29.6802 72.0359 29.1314C71.1173 28.5664 70.4083 27.7917 69.9087 26.8071C69.4253 25.8225 69.1836 24.6926 69.1836 23.4175C69.1836 22.4491 69.3205 21.5694 69.5945 20.7785C69.8684 19.9714 70.2713 19.2774 70.8031 18.6963C71.351 18.0991 72.0037 17.6471 72.7611 17.3405C73.5346 17.0176 74.3967 16.8562 75.3475 16.8562C76.6367 16.8562 77.7325 17.1387 78.635 17.7036C79.5535 18.2524 80.2626 19.0191 80.7621 20.0037C81.2617 20.9722 81.5115 22.102 81.5115 23.3933C81.5115 24.3779 81.3664 25.2737 81.0764 26.0808C80.8024 26.8717 80.3915 27.5576 79.8436 28.1387C79.3118 28.7198 78.6672 29.1717 77.9098 29.4945C77.1524 29.8012 76.2983 29.9546 75.3475 29.9546ZM75.3475 27.9934C75.9921 27.9934 76.54 27.8805 76.9912 27.6545C77.4586 27.4285 77.8373 27.1057 78.1273 26.686C78.4335 26.2502 78.6591 25.7579 78.8042 25.2091C78.9653 24.6604 79.0459 24.0631 79.0459 23.4175C79.0459 22.5459 78.9089 21.7711 78.635 21.0932C78.3771 20.3992 77.9742 19.8504 77.4263 19.4468C76.8784 19.0433 76.1855 18.8416 75.3475 18.8416C74.719 18.8416 74.1711 18.9545 73.7038 19.1805C73.2365 19.4065 72.8497 19.7293 72.5435 20.149C72.2373 20.5686 72.0117 21.0609 71.8667 21.6259C71.7217 22.1747 71.6491 22.7719 71.6491 23.4175C71.6491 24.273 71.7781 25.0477 72.0359 25.7418C72.2937 26.4359 72.6966 26.9846 73.2445 27.3882C73.8085 27.7917 74.5095 27.9934 75.3475 27.9934Z" fill="black"/>
<path d="M83.816 17.2436H86.1848V29.5914H83.816V17.2436ZM90.6809 19.3016C90.5198 19.2693 90.3747 19.2532 90.2458 19.2532C90.133 19.237 90.0121 19.2289 89.8832 19.2289C89.1581 19.2289 88.5135 19.3984 87.9494 19.7374C87.4015 20.0602 86.9664 20.5202 86.6441 21.1174C86.3379 21.7146 86.1848 22.4087 86.1848 23.1996H85.0246L84.4928 19.5921H86.2332C86.5555 18.8174 86.9745 18.1879 87.4902 17.7036C88.0219 17.2033 88.7068 16.9531 89.5448 16.9531C89.7704 16.9531 89.9719 16.9611 90.1491 16.9773C90.3264 16.9773 90.5036 16.9934 90.6809 17.0257V19.3016Z" fill="black"/>
<path d="M97.876 22.1343C98.44 22.2796 98.996 22.4329 99.5439 22.5943C100.108 22.7557 100.615 22.9817 101.067 23.2722C101.534 23.5628 101.905 23.934 102.179 24.386C102.453 24.8379 102.59 25.4028 102.59 26.0808C102.59 26.8878 102.388 27.5819 101.985 28.1629C101.599 28.7279 101.026 29.1637 100.269 29.4703C99.5116 29.777 98.5931 29.9304 97.5134 29.9304C96.2725 29.9304 95.2331 29.7367 94.3951 29.3493C93.5733 28.9619 92.9448 28.4293 92.5097 27.7513C92.0907 27.0734 91.8651 26.3148 91.8329 25.4755H94.2259C94.2743 25.9597 94.4032 26.3955 94.6127 26.7829C94.8383 27.1703 95.1848 27.4769 95.6521 27.7029C96.1194 27.9127 96.7318 28.0177 97.4892 28.0177C98.1821 28.0177 98.7139 27.9289 99.0846 27.7513C99.4713 27.5738 99.7372 27.3478 99.8823 27.0734C100.043 26.7829 100.124 26.4923 100.124 26.2018C100.124 25.6853 99.9628 25.306 99.6405 25.0639C99.3182 24.8056 98.9154 24.62 98.4319 24.507C97.9485 24.3779 97.4328 24.2568 96.8849 24.1438C96.3531 24.0147 95.8133 23.8775 95.2653 23.7323C94.7174 23.5708 94.2179 23.3529 93.7667 23.0785C93.3154 22.8041 92.9529 22.4571 92.6789 22.0375C92.405 21.6178 92.268 21.0851 92.268 20.4395C92.268 19.7293 92.4533 19.1079 92.8239 18.5752C93.1946 18.0426 93.7264 17.631 94.4193 17.3405C95.1284 17.0338 95.9825 16.8804 96.9816 16.8804C98.0935 16.8804 99.0201 17.058 99.7614 17.4131C100.519 17.7682 101.091 18.2524 101.478 18.8658C101.864 19.463 102.082 20.1167 102.13 20.8269H99.7372C99.6889 20.5041 99.5761 20.1893 99.3988 19.8826C99.2377 19.576 98.9718 19.3177 98.6011 19.1079C98.2305 18.8981 97.6987 18.7931 97.0058 18.7931C96.474 18.7931 96.0389 18.8577 95.7005 18.9868C95.3782 19.116 95.1364 19.2935 94.9753 19.5195C94.8141 19.7455 94.7336 20.0198 94.7336 20.3427C94.7336 20.7623 94.8705 21.0771 95.1445 21.2869C95.4184 21.4967 95.7971 21.6581 96.2806 21.7711C96.764 21.868 97.2958 21.989 97.876 22.1343Z" fill="black"/>
<path d="M104.747 29.5914V12.2803H107.115V23.4175L106.197 23.3691L112.506 17.2436H115.213L106.318 25.7418L107.115 23.8775V29.5914H104.747ZM112.941 29.5914L108.566 22.7638L110.185 21.3111L115.721 29.5914H112.941Z" fill="black"/>
<path d="M117.384 29.5914V17.2436H119.753V29.5914H117.384ZM125.578 21.6743C125.578 21.1255 125.489 20.6413 125.312 20.2216C125.151 19.8019 124.885 19.4791 124.514 19.2532C124.16 19.0272 123.685 18.9142 123.088 18.9142C122.573 18.9142 122.105 18.9868 121.686 19.1321C121.283 19.2774 120.937 19.4872 120.647 19.7616C120.357 20.036 120.131 20.3669 119.97 20.7543C119.825 21.1255 119.753 21.5452 119.753 22.0132H118.931V18.7931H119.801C120.123 18.3251 120.615 17.8892 121.275 17.4857C121.936 17.0822 122.798 16.8804 123.862 16.8804C124.635 16.8804 125.328 17.0338 125.941 17.3405C126.553 17.631 127.045 18.0829 127.415 18.6963C127.786 19.2935 127.971 20.0683 127.971 21.0206V29.5914H125.578V21.6743Z" fill="black"/>
<path d="M130.799 29.5914V17.2436H133.167V29.5914H130.799ZM130.581 13.8056C130.581 13.4344 130.702 13.1115 130.944 12.8372C131.185 12.5628 131.532 12.4256 131.983 12.4256C132.434 12.4256 132.781 12.5628 133.022 12.8372C133.264 13.1115 133.385 13.4344 133.385 13.8056C133.385 14.1768 133.264 14.4997 133.022 14.7741C132.781 15.0485 132.434 15.1857 131.983 15.1857C131.532 15.1857 131.185 15.0485 130.944 14.7741C130.702 14.4997 130.581 14.1768 130.581 13.8056Z" fill="black"/>
<path d="M136.119 29.5914V17.2436H138.488V29.5914H136.119ZM144.313 21.6743C144.313 21.1255 144.225 20.6413 144.047 20.2216C143.886 19.8019 143.62 19.4791 143.25 19.2532C142.895 19.0272 142.42 18.9142 141.824 18.9142C141.308 18.9142 140.841 18.9868 140.422 19.1321C140.019 19.2774 139.672 19.4872 139.382 19.7616C139.092 20.036 138.867 20.3669 138.705 20.7543C138.56 21.1255 138.488 21.5452 138.488 22.0132H137.666V18.7931H138.536C138.858 18.3251 139.35 17.8892 140.011 17.4857C140.671 17.0822 141.534 16.8804 142.597 16.8804C143.371 16.8804 144.064 17.0338 144.676 17.3405C145.288 17.631 145.78 18.0829 146.15 18.6963C146.521 19.2935 146.706 20.0683 146.706 21.0206V29.5914H144.313V21.6743Z" fill="black"/>
<path d="M158.191 28.7682V17.2436H160.56V28.6229C160.56 29.8496 160.326 30.8585 159.859 31.6494C159.391 32.4564 158.723 33.0536 157.853 33.441C156.998 33.8284 155.975 34.0221 154.783 34.0221C153.606 34.0221 152.623 33.8445 151.834 33.4894C151.044 33.1505 150.432 32.6824 149.997 32.0852C149.578 31.4879 149.328 30.8262 149.247 30.0998H151.689C151.769 30.4711 151.922 30.802 152.148 31.0925C152.39 31.3992 152.72 31.6413 153.139 31.8188C153.574 31.9964 154.122 32.0852 154.783 32.0852C155.895 32.0852 156.741 31.8188 157.321 31.2862C157.901 30.7697 158.191 29.9304 158.191 28.7682ZM158.143 27.0976C157.804 27.5819 157.329 28.0177 156.716 28.405C156.12 28.7763 155.331 28.9619 154.348 28.9619C153.316 28.9619 152.39 28.7359 151.568 28.284C150.762 27.8159 150.117 27.138 149.634 26.2502C149.15 25.3463 148.909 24.2407 148.909 22.9333C148.909 21.9325 149.046 21.0609 149.32 20.3185C149.594 19.5598 149.972 18.9303 150.456 18.43C150.955 17.9135 151.535 17.5261 152.196 17.2678C152.857 17.0096 153.574 16.8804 154.348 16.8804C155.008 16.8804 155.572 16.9692 156.04 17.1468C156.523 17.3243 156.934 17.5503 157.272 17.8247C157.627 18.0991 157.917 18.3896 158.143 18.6963H158.336V27.0976H158.143ZM154.783 18.8658C154.009 18.8658 153.365 19.0433 152.849 19.3984C152.349 19.7535 151.979 20.2377 151.737 20.8511C151.495 21.4645 151.374 22.1585 151.374 22.9333C151.374 23.708 151.495 24.4021 151.737 25.0155C151.979 25.6288 152.349 26.113 152.849 26.4681C153.365 26.8232 154.009 27.0008 154.783 27.0008C155.314 27.0008 155.79 26.9201 156.209 26.7587C156.628 26.5811 156.982 26.3229 157.272 25.9839C157.562 25.6288 157.78 25.2011 157.925 24.7007C158.086 24.2003 158.167 23.6112 158.167 22.9333C158.167 22.0294 158.03 21.2788 157.756 20.6816C157.498 20.0683 157.111 19.6163 156.596 19.3258C156.096 19.0191 155.492 18.8658 154.783 18.8658Z" fill="black"/>
<path d="M168.717 22.1343C169.281 22.2796 169.837 22.4329 170.385 22.5943C170.949 22.7557 171.457 22.9817 171.908 23.2722C172.376 23.5628 172.746 23.934 173.02 24.386C173.294 24.8379 173.431 25.4028 173.431 26.0808C173.431 26.8878 173.23 27.5819 172.827 28.1629C172.44 28.7279 171.868 29.1637 171.11 29.4703C170.353 29.777 169.435 29.9304 168.355 29.9304C167.114 29.9304 166.075 29.7367 165.237 29.3493C164.415 28.9619 163.786 28.4293 163.351 27.7513C162.932 27.0734 162.707 26.3148 162.674 25.4755H165.067C165.116 25.9597 165.245 26.3955 165.454 26.7829C165.68 27.1703 166.026 27.4769 166.494 27.7029C166.961 27.9127 167.573 28.0177 168.331 28.0177C169.024 28.0177 169.555 27.9289 169.926 27.7513C170.313 27.5738 170.579 27.3478 170.724 27.0734C170.885 26.7829 170.965 26.4923 170.965 26.2018C170.965 25.6853 170.804 25.306 170.482 25.0639C170.16 24.8056 169.757 24.62 169.273 24.507C168.79 24.3779 168.274 24.2568 167.726 24.1438C167.195 24.0147 166.655 23.8775 166.107 23.7323C165.559 23.5708 165.059 23.3529 164.608 23.0785C164.157 22.8041 163.794 22.4571 163.52 22.0375C163.246 21.6178 163.109 21.0851 163.109 20.4395C163.109 19.7293 163.295 19.1079 163.665 18.5752C164.036 18.0426 164.568 17.631 165.261 17.3405C165.97 17.0338 166.824 16.8804 167.823 16.8804C168.935 16.8804 169.862 17.058 170.603 17.4131C171.36 17.7682 171.932 18.2524 172.319 18.8658C172.706 19.463 172.923 20.1167 172.972 20.8269H170.579C170.53 20.5041 170.418 20.1893 170.24 19.8826C170.079 19.576 169.813 19.3177 169.443 19.1079C169.072 18.8981 168.54 18.7931 167.847 18.7931C167.315 18.7931 166.88 18.8577 166.542 18.9868C166.22 19.116 165.978 19.2935 165.817 19.5195C165.656 19.7455 165.575 20.0198 165.575 20.3427C165.575 20.7623 165.712 21.0771 165.986 21.2869C166.26 21.4967 166.639 21.6581 167.122 21.7711C167.605 21.868 168.137 21.989 168.717 22.1343Z" fill="black"/>
<path d="M175.588 17.2436H177.957V29.5914H175.588V17.2436ZM182.453 19.3016C182.292 19.2693 182.147 19.2532 182.018 19.2532C181.905 19.237 181.784 19.2289 181.655 19.2289C180.93 19.2289 180.286 19.3984 179.722 19.7374C179.174 20.0602 178.739 20.5202 178.416 21.1174C178.11 21.7146 177.957 22.4087 177.957 23.1996H176.797L176.265 19.5921H178.005C178.328 18.8174 178.747 18.1879 179.262 17.7036C179.794 17.2033 180.479 16.9531 181.317 16.9531C181.543 16.9531 181.744 16.9611 181.921 16.9773C182.098 16.9773 182.276 16.9934 182.453 17.0257V19.3016Z" fill="black"/>
<path d="M187.244 29.9304C186.02 29.9304 185.037 29.6075 184.295 28.9619C183.57 28.3001 183.208 27.4447 183.208 26.3955C183.208 25.7014 183.328 25.1204 183.57 24.6523C183.828 24.1842 184.183 23.7968 184.634 23.4901C185.085 23.1835 185.625 22.9333 186.253 22.7396C186.898 22.5459 187.599 22.3764 188.356 22.2311C188.84 22.1343 189.275 22.0455 189.662 21.9648C190.048 21.8841 190.379 21.7792 190.653 21.6501C190.927 21.5209 191.128 21.3595 191.257 21.1659C191.402 20.9722 191.475 20.722 191.475 20.4153C191.475 19.9634 191.305 19.576 190.967 19.2532C190.645 18.9303 190.032 18.7689 189.13 18.7689C188.05 18.7689 187.309 18.9465 186.906 19.3016C186.503 19.6567 186.269 20.2539 186.205 21.0932H183.788C183.836 20.3023 184.046 19.5921 184.416 18.9626C184.803 18.317 185.383 17.8085 186.157 17.4373C186.946 17.0499 187.97 16.8562 189.227 16.8562C190.081 16.8562 190.846 16.9934 191.523 17.2678C192.216 17.5261 192.764 17.9619 193.167 18.5752C193.586 19.1886 193.795 20.036 193.795 21.1174V26.7829C193.795 27.2348 193.835 27.5738 193.916 27.7998C193.997 28.0257 194.15 28.1387 194.375 28.1387C194.407 28.1387 194.448 28.1387 194.496 28.1387C194.544 28.1387 194.601 28.1306 194.665 28.1145V29.5672C194.456 29.6156 194.246 29.6479 194.037 29.664C193.843 29.6963 193.65 29.7125 193.457 29.7125C192.877 29.7125 192.425 29.5833 192.103 29.3251C191.781 29.0507 191.587 28.5584 191.523 27.8482H191.475C191.056 28.4777 190.492 28.9861 189.783 29.3735C189.09 29.7447 188.244 29.9304 187.244 29.9304ZM187.776 28.0177C188.485 28.0177 189.114 27.8966 189.662 27.6545C190.226 27.4124 190.669 27.0492 190.991 26.565C191.313 26.0808 191.475 25.4835 191.475 24.7733V23.0059C191.346 23.1189 191.144 23.2319 190.87 23.3449C190.612 23.4417 190.298 23.5386 189.928 23.6354C189.573 23.7161 189.186 23.8049 188.767 23.9017C188.042 24.047 187.446 24.2245 186.979 24.4344C186.527 24.6281 186.197 24.8702 185.987 25.1607C185.794 25.4351 185.697 25.7902 185.697 26.226C185.697 26.8071 185.859 27.251 186.181 27.5576C186.519 27.8643 187.051 28.0177 187.776 28.0177ZM189.082 16.1541C188.453 16.1541 187.921 15.9523 187.486 15.5488C187.067 15.1292 186.858 14.5884 186.858 13.9267C186.858 13.2649 187.067 12.7322 187.486 12.3287C187.921 11.909 188.453 11.6992 189.082 11.6992C189.742 11.6992 190.282 11.909 190.701 12.3287C191.12 12.7322 191.33 13.2649 191.33 13.9267C191.33 14.5884 191.12 15.1292 190.701 15.5488C190.282 15.9523 189.742 16.1541 189.082 16.1541ZM189.082 15.0888C189.42 15.0888 189.694 14.9839 189.903 14.7741C190.113 14.5642 190.218 14.2818 190.218 13.9267C190.218 13.5877 190.113 13.3133 189.903 13.1035C189.694 12.8775 189.42 12.7645 189.082 12.7645C188.775 12.7645 188.517 12.8775 188.308 13.1035C188.099 13.3133 187.994 13.5877 187.994 13.9267C187.994 14.2818 188.099 14.5642 188.308 14.7741C188.517 14.9839 188.775 15.0888 189.082 15.0888Z" fill="black"/>
<path d="M205.578 12.2803H207.971V29.5914H205.578V12.2803ZM205.529 18.7447H206.182V28.1387H205.529C205.32 28.4131 205.038 28.6956 204.683 28.9861C204.345 29.2605 203.926 29.4865 203.426 29.664C202.943 29.8416 202.379 29.9304 201.734 29.9304C200.687 29.9304 199.744 29.6721 198.906 29.1556C198.084 28.6391 197.432 27.8966 196.948 26.9281C196.465 25.9436 196.223 24.7733 196.223 23.4175C196.223 22.4006 196.36 21.4887 196.634 20.6816C196.908 19.8746 197.295 19.1886 197.794 18.6237C198.31 18.0587 198.898 17.631 199.559 17.3405C200.219 17.0338 200.945 16.8804 201.734 16.8804C202.379 16.8804 202.943 16.9692 203.426 17.1468C203.926 17.3243 204.345 17.5584 204.683 17.8489C205.038 18.1233 205.32 18.4219 205.529 18.7447ZM202.121 27.9692C202.669 27.9692 203.152 27.8643 203.571 27.6545C203.99 27.4447 204.345 27.138 204.635 26.7345C204.941 26.3309 205.175 25.8548 205.336 25.306C205.497 24.7411 205.578 24.1116 205.578 23.4175C205.578 22.4813 205.441 21.6743 205.167 20.9964C204.893 20.3023 204.498 19.7777 203.982 19.4226C203.467 19.0514 202.846 18.8658 202.121 18.8658C201.557 18.8658 201.057 18.9868 200.622 19.2289C200.187 19.4711 199.825 19.8019 199.535 20.2216C199.261 20.6413 199.051 21.1255 198.906 21.6743C198.761 22.2231 198.689 22.8041 198.689 23.4175C198.689 24.2245 198.809 24.9751 199.051 25.6692C199.309 26.3632 199.696 26.9201 200.211 27.3397C200.727 27.7594 201.364 27.9692 202.121 27.9692Z" fill="black"/>
<path d="M216.368 29.9546C215.062 29.9546 213.951 29.6721 213.032 29.1072C212.13 28.5422 211.445 27.7675 210.977 26.7829C210.51 25.7821 210.276 24.6523 210.276 23.3933C210.276 22.4248 210.413 21.5452 210.687 20.7543C210.977 19.9472 211.38 19.2532 211.896 18.6721C212.428 18.091 213.064 17.6471 213.806 17.3405C214.563 17.0176 215.417 16.8562 216.368 16.8562C217.625 16.8562 218.68 17.1145 219.534 17.631C220.405 18.1475 221.065 18.8819 221.516 19.8342C221.984 20.7704 222.217 21.876 222.217 23.1512C222.217 23.3126 222.217 23.4821 222.217 23.6596C222.217 23.821 222.209 23.9502 222.193 24.047H211.461V22.1827H219.728C219.728 21.6985 219.647 21.2546 219.486 20.8511C219.325 20.4314 219.091 20.0683 218.785 19.7616C218.495 19.4549 218.14 19.2209 217.721 19.0595C217.302 18.8819 216.827 18.7931 216.295 18.7931C215.602 18.7931 214.982 18.9465 214.434 19.2532C213.902 19.5598 213.483 19.9876 213.177 20.5364C212.871 21.0851 212.718 21.7308 212.718 22.4733C212.718 22.7315 212.718 22.9898 212.718 23.248C212.718 23.4901 212.718 23.7161 212.718 23.9259C212.718 24.6361 212.855 25.2979 213.129 25.9113C213.403 26.5246 213.814 27.0331 214.361 27.4366C214.909 27.824 215.594 28.0177 216.416 28.0177C217.141 28.0177 217.721 27.8885 218.157 27.6303C218.608 27.372 218.946 27.0734 219.172 26.7345C219.413 26.3794 219.575 26.0646 219.655 25.7902H222.048C221.839 26.5811 221.492 27.2913 221.009 27.9208C220.525 28.5503 219.897 29.0507 219.123 29.4219C218.366 29.777 217.447 29.9546 216.368 29.9546Z" fill="black"/>
<path d="M227.607 13.273V26.1776C227.607 26.6134 227.647 26.9443 227.728 27.1703C227.825 27.3962 227.97 27.5576 228.163 27.6545C228.373 27.7352 228.647 27.7755 228.985 27.7755C229.178 27.7755 229.34 27.7675 229.468 27.7513C229.613 27.7352 229.791 27.711 230 27.6787V29.5914C229.694 29.6398 229.428 29.6721 229.203 29.6882C228.993 29.7205 228.751 29.7367 228.477 29.7367C227.817 29.7367 227.237 29.6317 226.737 29.4219C226.254 29.2121 225.883 28.8489 225.625 28.3324C225.367 27.7998 225.238 27.0573 225.238 26.105V13.273H227.607ZM223.45 17.2436H229.976V19.2047H223.45V17.2436Z" fill="black"/>
</svg>
