<?xml version="1.0" encoding="utf-8"?>
<!-- Generator: Adobe Illustrator 26.3.1, SVG Export Plug-In . SVG Version: 6.00 Build 0)  -->
<svg version="1.1" id="Layer_1" xmlns="http://www.w3.org/2000/svg" xmlns:xlink="http://www.w3.org/1999/xlink" x="0px" y="0px"
	 viewBox="0 0 1576.7 200" style="enable-background:new 0 0 1576.7 200;" xml:space="preserve">
<style type="text/css">
	.st0{fill:#6CACE4;}
	.st1{fill:#003087;}
</style>
<g>
	<g>
		<path class="st0" d="M124.7,24.7c0,13.6-11,24.7-24.7,24.7s-24.7-11-24.7-24.7S86.4,0,100,0S124.7,11,124.7,24.7"/>
		<path class="st0" d="M124.7,99.9c0,13.6-11,24.7-24.7,24.7s-24.7-11-24.7-24.7s11-24.7,24.7-24.7
			C113.6,75.3,124.7,86.3,124.7,99.9"/>
		<path class="st1" d="M49.3,99.9c0,13.6-11,24.7-24.7,24.7S0,113.5,0,99.9s11-24.7,24.7-24.7S49.3,86.3,49.3,99.9"/>
		<path class="st0" d="M200.1,99.9c0,13.6-11.1,24.7-24.7,24.7s-24.7-11-24.7-24.7s11-24.7,24.7-24.7
			C189,75.3,200.1,86.3,200.1,99.9"/>
		<path class="st0" d="M124.7,175.3c0,13.6-11,24.7-24.7,24.7s-24.7-11-24.7-24.7s11-24.7,24.7-24.7
			C113.6,150.7,124.7,161.7,124.7,175.3"/>
	</g>
	<g>
		<path class="st1" d="M306,60.1c-4-2.4-5.7-3.2-8.1-4c-2.9-0.9-7.7-1.6-10.7-1.6c-8.8,0-14.8,4.4-14.8,11c0,5.8,3.4,8.7,19.2,17.1
			c5.3,2.8,9.4,5.4,12.2,7.9c3.8,3.2,6,8.5,6,14.1c0,13.3-9.9,21.7-25.6,21.7c-5.3,0-10.2-0.9-14.4-2.6c-2.9-1.2-4.9-2.4-10-5.8
			l4.9-7.7c4.4,2.9,6.2,4,9,5.1c3.4,1.3,7.2,2,11.2,2c9.2,0,14.7-4.4,14.7-11.8c0-2.2-0.4-4.1-1.2-5.5c-1.3-2.4-3.5-4.6-6.6-6.4
			c-1.3-0.7-5.7-2.9-13-6.9c-11.7-6.2-16.6-12.4-16.6-20.4c0-12.4,10.2-20.6,25.7-20.6c4.5,0,9.1,0.6,13.1,1.9
			c3.2,1.1,5.1,2,9.4,4.6C310.5,52.1,306,60.1,306,60.1z"/>
		<path class="st1" d="M333.2,140.8c-2.8,4.5-4.6,6.6-9.5,11.3l-6.2-5.3c5.4-6,6.9-8.1,8.6-11.2c2.2-4.5,3.5-10.7,3.5-17.7v-71h9.7
			v80C337.4,133.5,336.3,136,333.2,140.8z"/>
		<path class="st1" d="M414.7,119.7c-5.8,4.7-13,7.2-21.3,7.2s-15.7-2.5-21.4-7.2c-6.5-5.3-9.1-11.5-9.1-21.7V46.9h9.7v48.2
			c0,9.7,0.7,12.4,4.5,16.5c3.9,4.4,9.5,6.7,16.3,6.7s12.4-2.4,16.3-6.7c3.8-4.1,4.5-6.8,4.5-16.5V46.9h9.7V98
			C423.7,108.4,421.2,114.4,414.7,119.7L414.7,119.7z"/>
		<path class="st1" d="M447.3,124.7V46.9h9.7v77.7L447.3,124.7L447.3,124.7z M488.7,124.7l-31.1-39.2L488,46.9h11.1l-30.4,37.8
			l31.9,39.9C500.6,124.7,488.7,124.7,488.7,124.7z"/>
		<path class="st1" d="M514.4,124.7V46.9h43.7v8.1h-34V81h28.1v8.1H524v27.4h35.1v8.1C559.1,124.7,514.4,124.7,514.4,124.7z"/>
		<path class="st1" d="M633.3,124.7V89.1h-45.8v35.6h-9.7V46.9h9.7v33.3h45.8V46.9h9.7v77.7L633.3,124.7L633.3,124.7z"/>
		<path class="st1" d="M718.4,119.7c-5.8,4.7-13,7.2-21.3,7.2s-15.7-2.5-21.4-7.2c-6.5-5.3-9.1-11.5-9.1-21.7V46.9h9.7v48.2
			c0,9.7,0.7,12.4,4.5,16.5c3.9,4.4,9.5,6.7,16.3,6.7c6.7,0,12.4-2.4,16.2-6.7c3.8-4.1,4.5-6.8,4.5-16.5V46.9h9.7V98
			C727.3,108.4,724.8,114.4,718.4,119.7z"/>
		<path class="st1" d="M790.1,60.1c-4-2.4-5.7-3.2-8.1-4c-2.9-0.9-7.6-1.6-10.7-1.6c-8.8,0-14.8,4.4-14.8,11
			c0,5.8,3.4,8.7,19.2,17.1c5.3,2.8,9.4,5.4,12.3,7.9c3.8,3.2,6,8.5,6,14.1c0,13.3-9.9,21.7-25.6,21.7c-5.3,0-10.2-0.9-14.4-2.6
			c-2.9-1.2-4.9-2.4-10-5.8l4.9-7.7c4.4,2.9,6.2,4,8.9,5.1c3.4,1.3,7.2,2,11.2,2c9.2,0,14.7-4.4,14.7-11.8c0-2.2-0.4-4.1-1.2-5.5
			c-1.3-2.4-3.5-4.6-6.6-6.4c-1.3-0.7-5.7-2.9-13-6.9c-11.7-6.2-16.6-12.4-16.6-20.4c0-12.4,10.2-20.6,25.7-20.6
			c4.5,0,9.1,0.6,13.1,1.9c3.2,1.1,5.1,2,9.4,4.6L790.1,60.1L790.1,60.1z"/>
		<path class="st1" d="M859.6,124.7l-8-23h-31.4l-8,23h-10.4l29-80h10.4l28.9,80H859.6z M835.9,57.3l-12.7,35.6h25.3L835.9,57.3z"/>
		<path class="st1" d="M905.3,96.2c-3.1,0-4.9-0.2-12-0.9v29.4h-9.7V46.9H908c9.4,0,14.6,1.6,19,6.1c4,4.1,6,9.5,6,16.8
			C932.9,86.2,922.4,96.2,905.3,96.2z M918.6,58.4c-2.4-2.4-5.8-3.3-12-3.3h-13.3v32c5.4,0.6,7.7,0.7,10.4,0.7
			c4.4,0,7.5-0.5,10.1-1.5c5.7-2.4,9.2-8.5,9.2-15.8C922.9,65.4,921.4,61.2,918.6,58.4L918.6,58.4z"/>
		<path class="st1" d="M981.2,126.2c-22.6,0-39.1-17-39.1-40.4c0-23.3,16.5-40.3,39.1-40.3s39,17,39,40.3
			C1020.2,109.2,1003.8,126.2,981.2,126.2z M981.2,54c-15.7,0-28.5,14.4-28.5,31.8c0,17.5,12.8,31.9,28.5,31.9
			c15.5,0,28.4-14.4,28.4-31.9C1009.6,68.4,996.8,54,981.2,54z"/>
		<path class="st1" d="M1062.5,55.1v69.6h-9.7V55.1h-25.9v-8.1h61.5v8.1H1062.5L1062.5,55.1z"/>
		<path class="st1" d="M1102.2,124.7V46.9h43.7v8.1h-34V81h28.1v8.1h-28.1v27.4h35.1v8.1L1102.2,124.7L1102.2,124.7z"/>
		<path class="st1" d="M1165.7,124.7V46.9h9.7v77.7L1165.7,124.7L1165.7,124.7z M1207.1,124.7L1176,85.4l30.4-38.5h11.1l-30.4,37.8
			l31.9,39.9C1219,124.7,1207.1,124.7,1207.1,124.7z"/>
		<path class="st1" d="M1278.7,124.7l-8-23h-31.4l-8,23h-10.4l29-80h10.4l28.9,80H1278.7L1278.7,124.7z M1255.1,57.3l-12.7,35.6
			h25.3L1255.1,57.3z"/>
	</g>
	<g>
		<path class="st1" d="M1358.7,126.9h-10.4l-28.8-80h16.2l17.8,52.5c0.4,1.2,0.7,2.5,0.8,3.6c0-1.1,0.1-1.9,0.7-3.6l17-52.5h15.5
			L1358.7,126.9L1358.7,126.9z"/>
		<path class="st1" d="M1398.6,124.7V46.9h47.3v12.6h-32.5v19.2h26.6v12.6h-26.6v20.7h34v12.6H1398.6z"/>
		<path class="st1" d="M1505,65.4c-8.2-3.6-15-5.5-20.1-5.5c-6.9,0-11.4,2.8-11.4,7.2c0,3.3,1.9,5.3,7.4,8.2
			c11.9,6.4,19.7,11.3,23.3,15c3.3,3.3,5.3,8.5,5.3,13.9c0,13.9-10.1,22-27.3,22c-2.4,0-4.7-0.1-6.9-0.5c-5.5-0.7-8.1-1.6-16.3-5.4
			l-5.1-2.4l6.2-13.7c5.7,3.1,8,4.2,11.1,5.4c3.9,1.4,8.1,2.2,11.2,2.2c6.8,0,11.3-3.1,11.3-7.8c0-3.3-1.8-5.5-6.8-8.4l-12-6.8
			c-13.8-7.9-18-13.1-18-21.5c0-3.9,1.2-7.9,3.1-10.8c1.3-2,3.3-4,5.8-5.8c5.7-3.9,10.5-5.2,19.6-5.2c5.2,0,9.8,0.6,14.6,2
			c3.8,1.2,5.9,2,11.1,4.5L1505,65.4L1505,65.4z"/>
		<path class="st1" d="M1553.4,59.5v65.1h-14.8V59.5h-23.3V46.9h61.5v12.6H1553.4z"/>
	</g>
</g>
</svg>
